<?xml version="1.0" encoding="utf-8"?>
<!-- Svg Vector Icons : http://www.onlinewebfonts.com/icon -->
<!DOCTYPE svg PUBLIC "-//W3C//DTD SVG 1.1//EN" "http://www.w3.org/Graphics/SVG/1.1/DTD/svg11.dtd">
<svg version="1.1" xmlns="http://www.w3.org/2000/svg" xmlns:xlink="http://www.w3.org/1999/xlink" x="0px" y="0px" viewBox="0 0 1000 1000" enable-background="new 0 0 1000 1000" xml:space="preserve">
<metadata> Svg Vector Icons : http://www.onlinewebfonts.com/icon </metadata>
<g><path d="M956.1,177h-6H49.8H42H18.5H10V823h980l0-645.9H956.1L956.1,177z M910.9,217.4L532.3,607.3c-17.2,17.8-47.4,17.8-64.6,0L89,217.4H910.9L910.9,217.4z M49.2,233.5l254.5,262L49.2,757.7V233.5L49.2,233.5z M80.4,782.6l251-258.5L440,635.9c16,16.5,37.4,25.6,60,25.6c22.7,0,44-9.1,60-25.6l108.5-111.7l251,258.5H80.4L80.4,782.6z M950.8,757.7L696.2,495.6l254.6-262.2V757.7L950.8,757.7z"/></g>
</svg>